<svg width="297" height="103" viewBox="0 0 297 103" fill="none" xmlns="http://www.w3.org/2000/svg">
<g filter="url(#filter0_d_4019_8793)">
<rect x="9.9707" y="27.6484" width="272.631" height="64.7203" rx="32.3601" transform="rotate(-3.71768 9.9707 27.6484)" fill="white" shape-rendering="crispEdges"/>
<rect x="26.6504" y="37.5879" width="41.7262" height="42.7203" rx="17" transform="rotate(-3.71768 26.6504 37.5879)" fill="#F0EDE6"/>
<rect x="76.2715" y="34.3633" width="41.7262" height="42.7203" rx="17" transform="rotate(-3.71768 76.2715 34.3633)" fill="#F0EDE6"/>
<rect x="125.894" y="31.1396" width="41.7262" height="42.7203" rx="17" transform="rotate(-3.71768 125.894 31.1396)" fill="#F0EDE6"/>
<rect x="175.515" y="27.915" width="41.7262" height="42.7203" rx="17" transform="rotate(-3.71768 175.515 27.915)" fill="#F0EDE6"/>
<rect x="225.137" y="24.6904" width="41.7262" height="42.7203" rx="17" transform="rotate(-3.71768 225.137 24.6904)" fill="#F0EDE6"/>
</g>
<rect x="34.9072" y="21.0439" width="46.9244" height="46.9244" rx="18" transform="rotate(10.1441 34.9072 21.0439)" fill="#86D889"/>
<path d="M60.6117 43.6356C60.3683 43.3583 60.0028 43.2026 59.6307 43.2123C59.2541 43.2197 58.9065 43.396 58.689 43.6827C58.6802 43.6951 58.0804 44.4807 57.0786 45.1584C57.4214 38.3482 53.1875 35.0757 52.9903 34.9267C52.6596 34.6774 52.2213 34.6068 51.8294 34.7361C51.4376 34.8655 51.1479 35.1783 51.0623 35.5649C50.1477 39.6552 48.421 41.2379 46.5938 42.9132C45.0325 44.3447 43.4196 45.8247 42.54 48.7354C41.8188 51.1197 42.1726 53.567 43.5355 55.6277C45.0554 57.9237 47.6652 59.5468 50.7051 60.0907L50.796 60.107C55.0888 60.8424 58.8498 59.8948 61.1125 57.5058C64.56 53.8672 64.3447 47.9045 60.6117 43.6356ZM55.0655 56.8508C54.1551 57.735 52.778 58.1181 51.383 57.8748L51.3495 57.8688C49.2347 57.4904 47.7684 56.2557 47.3261 54.4782C46.7203 52.0496 48.1316 49.0378 50.6847 47.3162C51.0684 47.0576 51.582 47.0389 51.9941 47.2654C52.4076 47.4936 52.6492 47.9279 52.6086 48.3756C52.4555 50.1324 52.9467 50.4509 53.8357 51.0291C54.5937 51.5215 55.6287 52.1944 55.963 53.7299C56.2196 54.9086 55.8944 56.0455 55.0658 56.8493L55.0655 56.8508Z" fill="white"/>
<defs>
<filter id="filter0_d_4019_8793" x="-2.0293" y="-2.0293" width="300.254" height="106.262" filterUnits="userSpaceOnUse" color-interpolation-filters="sRGB">
<feFlood flood-opacity="0" result="BackgroundImageFix"/>
<feColorMatrix in="SourceAlpha" type="matrix" values="0 0 0 0 0 0 0 0 0 0 0 0 0 0 0 0 0 0 127 0" result="hardAlpha"/>
<feOffset/>
<feGaussianBlur stdDeviation="6"/>
<feComposite in2="hardAlpha" operator="out"/>
<feColorMatrix type="matrix" values="0 0 0 0 0 0 0 0 0 0 0 0 0 0 0 0 0 0 0.09 0"/>
<feBlend mode="normal" in2="BackgroundImageFix" result="effect1_dropShadow_4019_8793"/>
<feBlend mode="normal" in="SourceGraphic" in2="effect1_dropShadow_4019_8793" result="shape"/>
</filter>
</defs>
</svg>
